<mxfile host="app.diagrams.net" agent="Mozilla/5.0 (Macintosh; Intel Mac OS X 10_15_7) AppleWebKit/537.36 (KHTML, like Gecko) Chrome/127.0.0.0 Safari/537.36" version="24.7.6">
  <diagram name="Page-1" id="5f0bae14-7c28-e335-631c-24af17079c00">
    <mxGraphModel dx="954" dy="496" grid="1" gridSize="10" guides="1" tooltips="1" connect="1" arrows="1" fold="1" page="1" pageScale="1" pageWidth="1100" pageHeight="850" background="none" math="0" shadow="0">
      <root>
        <mxCell id="0" />
        <mxCell id="1" parent="0" />
        <mxCell id="39150e848f15840c-1" value="Opendatasoft" style="verticalAlign=top;align=left;spacingTop=8;spacingLeft=2;spacingRight=12;shape=cube;size=10;direction=south;fontStyle=4;html=1;rounded=0;shadow=0;comic=0;labelBackgroundColor=none;strokeWidth=1;fontFamily=Verdana;fontSize=12" parent="1" vertex="1">
          <mxGeometry x="120" y="280" width="240" height="160" as="geometry" />
        </mxCell>
        <mxCell id="39150e848f15840c-2" value="LocalEnergyCharts" style="verticalAlign=top;align=left;spacingTop=8;spacingLeft=2;spacingRight=12;shape=cube;size=10;direction=south;fontStyle=4;html=1;rounded=0;shadow=0;comic=0;labelBackgroundColor=none;strokeWidth=1;fontFamily=Verdana;fontSize=12" parent="1" vertex="1">
          <mxGeometry x="480" y="280" width="520" height="240" as="geometry" />
        </mxCell>
        <mxCell id="39150e848f15840c-4" value="«interface»&lt;br&gt;&lt;b&gt;RESTful API&lt;br&gt;&lt;/b&gt;" style="html=1;rounded=0;shadow=0;comic=0;labelBackgroundColor=none;strokeWidth=1;fontFamily=Verdana;fontSize=12;align=center;" parent="1" vertex="1">
          <mxGeometry x="140" y="320" width="110" height="50" as="geometry" />
        </mxCell>
        <mxCell id="2kt7XXTKZLAYmr-dLWQS-9" style="edgeStyle=orthogonalEdgeStyle;rounded=0;orthogonalLoop=1;jettySize=auto;html=1;exitX=0;exitY=0.3;exitDx=0;exitDy=0;" parent="1" source="W7SA1Zq43BpHZT7up2Kc-1" target="39150e848f15840c-4" edge="1">
          <mxGeometry relative="1" as="geometry">
            <Array as="points">
              <mxPoint x="420" y="448" />
              <mxPoint x="420" y="345" />
            </Array>
          </mxGeometry>
        </mxCell>
        <mxCell id="2kt7XXTKZLAYmr-dLWQS-11" value="resolves zip codes&lt;br&gt;to a city" style="edgeLabel;html=1;align=center;verticalAlign=middle;resizable=0;points=[];" parent="2kt7XXTKZLAYmr-dLWQS-9" vertex="1" connectable="0">
          <mxGeometry x="-0.3143" y="-4" relative="1" as="geometry">
            <mxPoint x="-4" y="-20" as="offset" />
          </mxGeometry>
        </mxCell>
        <mxCell id="2kt7XXTKZLAYmr-dLWQS-12" style="edgeStyle=orthogonalEdgeStyle;rounded=0;orthogonalLoop=1;jettySize=auto;html=1;entryX=0;entryY=0.5;entryDx=0;entryDy=0;entryPerimeter=0;" parent="1" source="W7SA1Zq43BpHZT7up2Kc-1" target="2kt7XXTKZLAYmr-dLWQS-4" edge="1">
          <mxGeometry relative="1" as="geometry" />
        </mxCell>
        <mxCell id="2kt7XXTKZLAYmr-dLWQS-13" value="&lt;div&gt;saves data as solar city&lt;/div&gt;&lt;div&gt;&amp;nbsp;with all related solar systems&lt;/div&gt;" style="edgeLabel;html=1;align=center;verticalAlign=middle;resizable=0;points=[];" parent="2kt7XXTKZLAYmr-dLWQS-12" vertex="1" connectable="0">
          <mxGeometry x="0.0164" y="1" relative="1" as="geometry">
            <mxPoint x="-1" y="-52" as="offset" />
          </mxGeometry>
        </mxCell>
        <mxCell id="W7SA1Zq43BpHZT7up2Kc-16" style="edgeStyle=orthogonalEdgeStyle;rounded=0;orthogonalLoop=1;jettySize=auto;html=1;exitX=0.5;exitY=1;exitDx=0;exitDy=0;entryX=0.5;entryY=0;entryDx=0;entryDy=0;" parent="1" source="39150e848f15840c-7" target="W7SA1Zq43BpHZT7up2Kc-1" edge="1">
          <mxGeometry relative="1" as="geometry" />
        </mxCell>
        <mxCell id="39150e848f15840c-7" value="&lt;span class=&quot;pl-smi&quot;&gt;&lt;span data-hydro-click-hmac=&quot;9a1bd0da13538f4d7384111eaa0cd28276c160327f7844ee7231a722ce2e75ab&quot; data-hydro-click=&quot;{&amp;quot;event_type&amp;quot;:&amp;quot;code_navigation.click_on_symbol&amp;quot;,&amp;quot;payload&amp;quot;:{&amp;quot;action&amp;quot;:&amp;quot;click_on_symbol&amp;quot;,&amp;quot;repository_id&amp;quot;:535825856,&amp;quot;ref&amp;quot;:&amp;quot;main&amp;quot;,&amp;quot;language&amp;quot;:&amp;quot;Java&amp;quot;,&amp;quot;backend&amp;quot;:&amp;quot;ALEPH_FUZZY&amp;quot;,&amp;quot;code_nav_context&amp;quot;:&amp;quot;BLOB_VIEW&amp;quot;,&amp;quot;retry_backend&amp;quot;:&amp;quot;&amp;quot;,&amp;quot;cross_repo_results_included&amp;quot;:&amp;quot;CROSS_REPO_ENABLED&amp;quot;,&amp;quot;in_repo_result_count&amp;quot;:1,&amp;quot;cross_repo_result_count&amp;quot;:0,&amp;quot;originating_url&amp;quot;:&amp;quot;https://github.com/snagel86/local-energy-charts/find-definition?q=MastrClientScheduler&amp;amp;blob_path=domain%2Fmastr-client%2Fsrc%2Fmain%2Fjava%2Fde%2Flocal%2Fenergycharts%2Fmastr%2Fschedule%2FMastrClientScheduler.java&amp;amp;ref=main&amp;amp;language=Java&amp;amp;row=11&amp;amp;col=13&amp;amp;code_nav_context=BLOB_VIEW&amp;quot;,&amp;quot;user_id&amp;quot;:null}}&quot; class=&quot;pl-token&quot;&gt;SolarCityUpdateScheduler&lt;/span&gt;&lt;/span&gt;" style="shape=component;align=left;spacingLeft=36;rounded=0;shadow=0;comic=0;labelBackgroundColor=none;strokeWidth=1;fontFamily=Verdana;fontSize=12;html=1;" parent="1" vertex="1">
          <mxGeometry x="510" y="330" width="200" height="60" as="geometry" />
        </mxCell>
        <mxCell id="2kt7XXTKZLAYmr-dLWQS-4" value="Database" style="sketch=0;points=[[0,0,0],[0.25,0,0],[0.5,0,0],[0.75,0,0],[1,0,0],[0,1,0],[0.25,1,0],[0.5,1,0],[0.75,1,0],[1,1,0],[0,0.25,0],[0,0.5,0],[0,0.75,0],[1,0.25,0],[1,0.5,0],[1,0.75,0]];outlineConnect=0;fontColor=#232F3E;gradientColor=#4D72F3;gradientDirection=north;fillColor=#3334B9;strokeColor=#ffffff;dashed=0;verticalLabelPosition=bottom;verticalAlign=top;align=center;html=1;fontSize=12;fontStyle=0;aspect=fixed;shape=mxgraph.aws4.resourceIcon;resIcon=mxgraph.aws4.documentdb_with_mongodb_compatibility;" parent="1" vertex="1">
          <mxGeometry x="691" y="600" width="98" height="98" as="geometry" />
        </mxCell>
        <mxCell id="2kt7XXTKZLAYmr-dLWQS-6" value="" style="aspect=fixed;html=1;points=[];align=center;image;fontSize=12;image=img/lib/azure2/general/Scheduler.svg;" parent="1" vertex="1">
          <mxGeometry x="691" y="369" width="41" height="41" as="geometry" />
        </mxCell>
        <mxCell id="2kt7XXTKZLAYmr-dLWQS-25" style="edgeStyle=orthogonalEdgeStyle;rounded=0;orthogonalLoop=1;jettySize=auto;html=1;entryX=1;entryY=0.5;entryDx=0;entryDy=0;entryPerimeter=0;" parent="1" source="2kt7XXTKZLAYmr-dLWQS-7" target="2kt7XXTKZLAYmr-dLWQS-4" edge="1">
          <mxGeometry relative="1" as="geometry" />
        </mxCell>
        <mxCell id="2kt7XXTKZLAYmr-dLWQS-26" value="&lt;div&gt;loads solar city, and calculates &lt;br&gt;&lt;/div&gt;&lt;div&gt;the annual addition of solar installations&lt;/div&gt;" style="edgeLabel;html=1;align=center;verticalAlign=middle;resizable=0;points=[];" parent="2kt7XXTKZLAYmr-dLWQS-25" vertex="1" connectable="0">
          <mxGeometry x="-0.1" y="1" relative="1" as="geometry">
            <mxPoint x="9" y="-29" as="offset" />
          </mxGeometry>
        </mxCell>
        <mxCell id="2kt7XXTKZLAYmr-dLWQS-7" value="SolarCityStatisticService" style="shape=component;align=left;spacingLeft=36;rounded=0;shadow=0;comic=0;labelBackgroundColor=none;strokeWidth=1;fontFamily=Verdana;fontSize=12;html=1;" parent="1" vertex="1">
          <mxGeometry x="750" y="430" width="200" height="60" as="geometry" />
        </mxCell>
        <mxCell id="2kt7XXTKZLAYmr-dLWQS-20" style="edgeStyle=orthogonalEdgeStyle;rounded=0;orthogonalLoop=1;jettySize=auto;html=1;exitX=0.5;exitY=1;exitDx=0;exitDy=0;entryX=0.5;entryY=0;entryDx=0;entryDy=0;" parent="1" source="2kt7XXTKZLAYmr-dLWQS-8" target="2kt7XXTKZLAYmr-dLWQS-7" edge="1">
          <mxGeometry relative="1" as="geometry" />
        </mxCell>
        <mxCell id="2kt7XXTKZLAYmr-dLWQS-8" value="«interface»&lt;br&gt;&lt;b&gt;RESTful API&lt;br&gt;&lt;/b&gt;" style="html=1;rounded=0;shadow=0;comic=0;labelBackgroundColor=none;strokeWidth=1;fontFamily=Verdana;fontSize=12;align=center;" parent="1" vertex="1">
          <mxGeometry x="795" y="320" width="110" height="50" as="geometry" />
        </mxCell>
        <mxCell id="2kt7XXTKZLAYmr-dLWQS-21" style="edgeStyle=orthogonalEdgeStyle;rounded=0;orthogonalLoop=1;jettySize=auto;html=1;exitX=0.5;exitY=1;exitDx=0;exitDy=0;" parent="1" source="2kt7XXTKZLAYmr-dLWQS-19" target="2kt7XXTKZLAYmr-dLWQS-8" edge="1">
          <mxGeometry relative="1" as="geometry" />
        </mxCell>
        <mxCell id="2kt7XXTKZLAYmr-dLWQS-24" value="&lt;div&gt;requests the annual addition of solar installations &lt;br&gt;&lt;/div&gt;&lt;div&gt;to visualize it with Highcharts&lt;/div&gt;" style="edgeLabel;html=1;align=center;verticalAlign=middle;resizable=0;points=[];" parent="2kt7XXTKZLAYmr-dLWQS-21" vertex="1" connectable="0">
          <mxGeometry x="-0.2353" y="2" relative="1" as="geometry">
            <mxPoint as="offset" />
          </mxGeometry>
        </mxCell>
        <mxCell id="2kt7XXTKZLAYmr-dLWQS-19" value="pv-frankfurt.de" style="shape=image;html=1;verticalAlign=top;verticalLabelPosition=bottom;labelBackgroundColor=#ffffff;imageAspect=0;aspect=fixed;image=https://cdn2.iconfinder.com/data/icons/whcompare-isometric-web-hosting-servers/50/browser-window-with-stats-128.png" parent="1" vertex="1">
          <mxGeometry x="786" y="60" width="128" height="128" as="geometry" />
        </mxCell>
        <mxCell id="W7SA1Zq43BpHZT7up2Kc-14" style="edgeStyle=orthogonalEdgeStyle;rounded=0;orthogonalLoop=1;jettySize=auto;html=1;exitX=0;exitY=0.7;exitDx=0;exitDy=0;entryX=1;entryY=0.5;entryDx=0;entryDy=0;" parent="1" source="W7SA1Zq43BpHZT7up2Kc-1" target="W7SA1Zq43BpHZT7up2Kc-11" edge="1">
          <mxGeometry relative="1" as="geometry">
            <Array as="points">
              <mxPoint x="420" y="472" />
              <mxPoint x="420" y="546" />
            </Array>
          </mxGeometry>
        </mxCell>
        <mxCell id="W7SA1Zq43BpHZT7up2Kc-15" value="downloads&amp;nbsp;&lt;div&gt;all solar systems&lt;div&gt;by municipality key, &lt;br&gt;or alternatively &lt;br&gt;by resolved &lt;br&gt;zip codes&lt;/div&gt;&lt;/div&gt;" style="edgeLabel;html=1;align=center;verticalAlign=middle;resizable=0;points=[];" parent="W7SA1Zq43BpHZT7up2Kc-14" vertex="1" connectable="0">
          <mxGeometry x="-0.2593" y="-2" relative="1" as="geometry">
            <mxPoint y="-6" as="offset" />
          </mxGeometry>
        </mxCell>
        <mxCell id="W7SA1Zq43BpHZT7up2Kc-1" value="&lt;span class=&quot;pl-smi&quot;&gt;&lt;span data-hydro-click-hmac=&quot;9a1bd0da13538f4d7384111eaa0cd28276c160327f7844ee7231a722ce2e75ab&quot; data-hydro-click=&quot;{&amp;quot;event_type&amp;quot;:&amp;quot;code_navigation.click_on_symbol&amp;quot;,&amp;quot;payload&amp;quot;:{&amp;quot;action&amp;quot;:&amp;quot;click_on_symbol&amp;quot;,&amp;quot;repository_id&amp;quot;:535825856,&amp;quot;ref&amp;quot;:&amp;quot;main&amp;quot;,&amp;quot;language&amp;quot;:&amp;quot;Java&amp;quot;,&amp;quot;backend&amp;quot;:&amp;quot;ALEPH_FUZZY&amp;quot;,&amp;quot;code_nav_context&amp;quot;:&amp;quot;BLOB_VIEW&amp;quot;,&amp;quot;retry_backend&amp;quot;:&amp;quot;&amp;quot;,&amp;quot;cross_repo_results_included&amp;quot;:&amp;quot;CROSS_REPO_ENABLED&amp;quot;,&amp;quot;in_repo_result_count&amp;quot;:1,&amp;quot;cross_repo_result_count&amp;quot;:0,&amp;quot;originating_url&amp;quot;:&amp;quot;https://github.com/snagel86/local-energy-charts/find-definition?q=MastrClientScheduler&amp;amp;blob_path=domain%2Fmastr-client%2Fsrc%2Fmain%2Fjava%2Fde%2Flocal%2Fenergycharts%2Fmastr%2Fschedule%2FMastrClientScheduler.java&amp;amp;ref=main&amp;amp;language=Java&amp;amp;row=11&amp;amp;col=13&amp;amp;code_nav_context=BLOB_VIEW&amp;quot;,&amp;quot;user_id&amp;quot;:null}}&quot; class=&quot;pl-token&quot;&gt;SolarCityUpdateService&lt;/span&gt;&lt;/span&gt;" style="shape=component;align=left;spacingLeft=36;rounded=0;shadow=0;comic=0;labelBackgroundColor=none;strokeWidth=1;fontFamily=Verdana;fontSize=12;html=1;" parent="1" vertex="1">
          <mxGeometry x="510" y="430" width="200" height="60" as="geometry" />
        </mxCell>
        <mxCell id="W7SA1Zq43BpHZT7up2Kc-10" value="Marktstammdatenregister" style="verticalAlign=top;align=left;spacingTop=8;spacingLeft=2;spacingRight=12;shape=cube;size=10;direction=south;fontStyle=4;html=1;rounded=0;shadow=0;comic=0;labelBackgroundColor=none;strokeWidth=1;fontFamily=Verdana;fontSize=12" parent="1" vertex="1">
          <mxGeometry x="120" y="480" width="240" height="160" as="geometry" />
        </mxCell>
        <mxCell id="W7SA1Zq43BpHZT7up2Kc-11" value="«interface»&lt;br&gt;&lt;b&gt;RESTful API&lt;br&gt;&lt;/b&gt;" style="html=1;rounded=0;shadow=0;comic=0;labelBackgroundColor=none;strokeWidth=1;fontFamily=Verdana;fontSize=12;align=center;" parent="1" vertex="1">
          <mxGeometry x="140" y="521" width="110" height="50" as="geometry" />
        </mxCell>
        <mxCell id="W7SA1Zq43BpHZT7up2Kc-12" value="" style="shape=image;verticalLabelPosition=bottom;labelBackgroundColor=default;verticalAlign=top;aspect=fixed;imageAspect=0;image=data:image/svg+xml,PHN2ZyB4bWxuczp4bGluaz0iaHR0cDovL3d3dy53My5vcmcvMTk5OS94bGluayIgeG1sbnM9Imh0dHA6Ly93d3cudzMub3JnLzIwMDAvc3ZnIiB4bWw6c3BhY2U9InByZXNlcnZlIiB2aWV3Qm94PSIwIDAgMTY0Ljc1IDY4Ljc1IiBoZWlnaHQ9IjY4Ljc1cHgiIHdpZHRoPSIxNjQuNzVweCIgeT0iMHB4IiB4PSIwcHgiIHZlcnNpb249IjEuMSI+JiN4YTs8ZyBpZD0iRWJlbmVfMiI+JiN4YTsJPHJlY3QgaGVpZ2h0PSI2OC43NSIgd2lkdGg9IjE2NC43NSIgZmlsbD0iI0ZGRkZGRiIvPiYjeGE7PC9nPiYjeGE7PGcgaWQ9IkViZW5lXzEiPiYjeGE7CTxnPiYjeGE7CQk8cGF0aCBkPSJNMjguNjExLDU2LjEwOWgtMC45MTZ2LTUuMzcxaC0wLjAyMWwtMi4xNjgsNS4zNzFoLTAuODE3bC0yLjE2OC01LjM3MWgtMC4wMjJ2NS4zNzFoLTAuOTE1di03LjUxOGgxLjAzNWwyLjUxNyw2LjE2NyYjMTA7JiM5OyYjOTsmIzk7aDAuMDIybDIuNTA1LTYuMTY3aDAuOTQ4VjU2LjEwOXoiLz4mI3hhOwkJPHBhdGggZD0iTTMyLjQ4OCw1My4yMDFoMC40MzZ2LTAuNDAzYzAtMC45MTUtMC4zNi0xLjI2NC0xLjAzNS0xLjI2NGMtMC42MzIsMC0xLjA2OCwwLjI5NC0xLjI5NiwwLjQ3OWwtMC4zMjctMC42NTQmIzEwOyYjOTsmIzk7JiM5O2MwLjI3Mi0wLjIwNywwLjgwNy0wLjYxLDEuNzg3LTAuNjFjMS4xNDQsMCwxLjc1NCwwLjY2NSwxLjc1NCwyLjA0OHYyLjIyM2MwLDAuNDQ3LDAuMDQzLDAuOTQ4LDAuMDY1LDEuMDg5aC0wLjg1bC0wLjAzMi0wLjU3OCYjMTA7JiM5OyYjOTsmIzk7aC0wLjAyMmMtMC4xODUsMC4yOTQtMC42MzIsMC43MDgtMS40NiwwLjcwOGMtMC44NjEsMC0xLjQxNy0wLjYxLTEuNDE3LTEuNDkzQzMwLjA5MSw1My42NjksMzEuMTI2LDUzLjIwMSwzMi40ODgsNTMuMjAxeiYjMTA7JiM5OyYjOTsmIzk7IE0zMi45MjQsNTQuOTY1di0xLjEzM2wtMC41MDEsMC4wMjFjLTAuOTkxLDAuMDQ0LTEuNDQ5LDAuMjgzLTEuNDQ5LDAuODM5YzAsMC41MTIsMC4zNDksMC43OTUsMC43MywwLjc5NSYjMTA7JiM5OyYjOTsmIzk7QzMyLjQwMSw1NS40ODgsMzIuNzI4LDU1LjE3MiwzMi45MjQsNTQuOTY1eiIvPiYjeGE7CQk8cGF0aCBkPSJNMzcuOTU3LDUxLjY2NWMtMC4wNjUtMC4wMzMtMC4xOTYtMC4wOTgtMC40NzktMC4wOThjLTAuNjk3LDAtMS4wNTcsMC40MjUtMS4yMDksMC43NDF2My44MDJoLTAuODgyVjUwLjg4aDAuODE3djAuNzczJiMxMDsmIzk7JiM5OyYjOTtoMC4wMjFjMC4xNjQtMC4zODEsMC41MTItMC44NzIsMS4zMjktMC44NzJjMC4yMTgsMCwwLjM0OSwwLjAzMywwLjQ3OSwwLjA3NkwzNy45NTcsNTEuNjY1eiIvPiYjeGE7CQk8cGF0aCBkPSJNNDEuMTA1LDUzLjIzM2wyLjE2OCwyLjg3NmgtMS4xMTFsLTEuNzg3LTIuNDRoLTAuNDM2djIuNDRoLTAuODgydi03LjcwM2wwLjg4Mi0wLjA5OHY0LjYwOGgwLjQ1OGwxLjcyMS0yLjAzN2gxLjA2OCYjMTA7JiM5OyYjOTsmIzk7TDQxLjEwNSw1My4yMzN6Ii8+JiN4YTsJCTxwYXRoIGQ9Ik00Ni43MjcsNTEuNjMyaC0xLjM1MXYyLjcwMmMwLDAuODE3LDAuMjA3LDEuMTIyLDAuNzg0LDEuMTIyYzAuMjg0LDAsMC41MDEtMC4wOTgsMC42MS0wLjE1MmwwLjA4NywwLjcwOCYjMTA7JiM5OyYjOTsmIzk7Yy0wLjA4NywwLjA1NS0wLjM4MSwwLjIyOS0wLjkzNywwLjIyOWMtMS4wMjQsMC0xLjQyNy0wLjU4OC0xLjQyNy0xLjc4N3YtMi44MjJoLTAuNzE5di0wLjYyMWwwLjcxOS0wLjEzMWwwLjA5OC0xLjQ2aDAuNzg0djEuNDYmIzEwOyYjOTsmIzk7JiM5O2gxLjQ2TDQ2LjcyNyw1MS42MzJ6Ii8+JiN4YTsJCTxwYXRoIGQ9Ik01MC41MTcsNTEuOTY5Yy0wLjE4NS0wLjE1Mi0wLjU3Ny0wLjQ1OC0xLjE1NS0wLjQ1OGMtMC41NjYsMC0wLjgzOSwwLjI0LTAuODM5LDAuNTQ1YzAsMC40MTQsMC4yNCwwLjU5OSwwLjc5NSwwLjg4MiYjMTA7JiM5OyYjOTsmIzk7bDAuMzkyLDAuMTk2YzAuODE3LDAuNDE0LDEuMjY0LDAuODYsMS4yNjQsMS42MjNjMCwwLjc5NS0wLjU4OCwxLjQ4Mi0xLjg2MywxLjQ4MmMtMC44NzIsMC0xLjMyOS0wLjMzOC0xLjU2OS0wLjU1NmwwLjMyNy0wLjc3MyYjMTA7JiM5OyYjOTsmIzk7YzAuMjI5LDAuMjI5LDAuNjEsMC41NDQsMS4yNDIsMC41NDRjMC42NjUsMCwxLjAwMi0wLjI1LDEuMDAyLTAuNTg4YzAtMC41MDEtMC4zMjctMC42ODYtMC45MTUtMS4wMDJsLTAuMzgxLTAuMjA3JiMxMDsmIzk7JiM5OyYjOTtjLTAuNzUyLTAuNDAzLTEuMTIyLTAuODM5LTEuMTIyLTEuNTU4YzAtMC43NzMsMC42OTctMS4zNTEsMS42ODgtMS4zNTFjMC44MzksMCwxLjI0MiwwLjM0OSwxLjQyNywwLjUwMUw1MC41MTcsNTEuOTY5eiIvPiYjeGE7CQk8cGF0aCBkPSJNNTQuNzAxLDUxLjYzMkg1My4zNXYyLjcwMmMwLDAuODE3LDAuMjA3LDEuMTIyLDAuNzg1LDEuMTIyYzAuMjgzLDAsMC41MDEtMC4wOTgsMC42MS0wLjE1MmwwLjA4NywwLjcwOCYjMTA7JiM5OyYjOTsmIzk7Yy0wLjA4NywwLjA1NS0wLjM4MSwwLjIyOS0wLjkzNywwLjIyOWMtMS4wMjQsMC0xLjQyNy0wLjU4OC0xLjQyNy0xLjc4N3YtMi44MjJoLTAuNzE5di0wLjYyMWwwLjcxOS0wLjEzMWwwLjA5OC0xLjQ2aDAuNzg1djEuNDYmIzEwOyYjOTsmIzk7JiM5O2gxLjQ2TDU0LjcwMSw1MS42MzJ6Ii8+JiN4YTsJCTxwYXRoIGQ9Ik01Ny45NTgsNTMuMjAxaDAuNDM2di0wLjQwM2MwLTAuOTE1LTAuMzYtMS4yNjQtMS4wMzUtMS4yNjRjLTAuNjMyLDAtMS4wNjgsMC4yOTQtMS4yOTYsMC40NzlsLTAuMzI3LTAuNjU0JiMxMDsmIzk7JiM5OyYjOTtjMC4yNzItMC4yMDcsMC44MDctMC42MSwxLjc4Ny0wLjYxYzEuMTQ0LDAsMS43NTQsMC42NjUsMS43NTQsMi4wNDh2Mi4yMjNjMCwwLjQ0NywwLjA0MywwLjk0OCwwLjA2NSwxLjA4OWgtMC44NWwtMC4wMzMtMC41NzgmIzEwOyYjOTsmIzk7JiM5O2gtMC4wMjJjLTAuMTg1LDAuMjk0LTAuNjMyLDAuNzA4LTEuNDYsMC43MDhjLTAuODYxLDAtMS40MTctMC42MS0xLjQxNy0xLjQ5M0M1NS41NjEsNTMuNjY5LDU2LjU5Niw1My4yMDEsNTcuOTU4LDUzLjIwMXomIzEwOyYjOTsmIzk7JiM5OyBNNTguMzk0LDU0Ljk2NXYtMS4xMzNsLTAuNTAxLDAuMDIxYy0wLjk5MSwwLjA0NC0xLjQ0OSwwLjI4My0xLjQ0OSwwLjgzOWMwLDAuNTEyLDAuMzQ5LDAuNzk1LDAuNzMsMC43OTUmIzEwOyYjOTsmIzk7JiM5O0M1Ny44NzEsNTUuNDg4LDU4LjE5Nyw1NS4xNzIsNTguMzk0LDU0Ljk2NXoiLz4mI3hhOwkJPHBhdGggZD0iTTY0LjAyNSw1Ni4xMDl2LTMuMDk0YzAtMS4wMzUtMC4yOTQtMS40ODEtMC45MzctMS40ODFjLTAuNzQxLDAtMS4xNTUsMC4zNTktMS4zNTEsMC41NjZ2NC4wMDloLTAuODgyVjUwLjg4aDAuODE3djAuNTg4JiMxMDsmIzk7JiM5OyYjOTtoMC4wMjFjMC4yMTgtMC4yNCwwLjczLTAuNzE5LDEuNjAyLTAuNzE5YzAuNjEsMCwxLjA3OSwwLjI1LDEuMzQsMC43NzNjMC4yNjEtMC4yOTQsMC44MzktMC43NzMsMS42NjctMC43NzMmIzEwOyYjOTsmIzk7JiM5O2MxLjE0NCwwLDEuNzc2LDAuNjk3LDEuNzc2LDIuMTI1djMuMjM2aC0wLjg4MnYtMy4wOTRjMC0xLjAzNS0wLjM5Mi0xLjQ4MS0xLjEwMS0xLjQ4MWMtMC42MjEsMC0xLjAzNSwwLjM0OS0xLjI2NCwwLjU2NiYjMTA7JiM5OyYjOTsmIzk7YzAuMDU1LDAuMjI5LDAuMDc2LDAuNDc5LDAuMDc2LDAuNzczdjMuMjM2SDY0LjAyNXoiLz4mI3hhOwkJPHBhdGggZD0iTTcyLjgxNiw1Ni4xMDl2LTMuMDk0YzAtMS4wMzUtMC4yOTQtMS40ODEtMC45MzctMS40ODFjLTAuNzQxLDAtMS4xNTUsMC4zNTktMS4zNTEsMC41NjZ2NC4wMDloLTAuODgyVjUwLjg4aDAuODE3djAuNTg4JiMxMDsmIzk7JiM5OyYjOTtoMC4wMjFjMC4yMTgtMC4yNCwwLjczLTAuNzE5LDEuNjAyLTAuNzE5YzAuNjEsMCwxLjA3OSwwLjI1LDEuMzQsMC43NzNjMC4yNjEtMC4yOTQsMC44MzktMC43NzMsMS42NjctMC43NzMmIzEwOyYjOTsmIzk7JiM5O2MxLjE0NCwwLDEuNzc2LDAuNjk3LDEuNzc2LDIuMTI1djMuMjM2aC0wLjg4MnYtMy4wOTRjMC0xLjAzNS0wLjM5Mi0xLjQ4MS0xLjEwMS0xLjQ4MWMtMC42MjEsMC0xLjAzNSwwLjM0OS0xLjI2NCwwLjU2NiYjMTA7JiM5OyYjOTsmIzk7YzAuMDU1LDAuMjI5LDAuMDc2LDAuNDc5LDAuMDc2LDAuNzczdjMuMjM2SDcyLjgxNnoiLz4mI3hhOwkJPHBhdGggZD0iTTgwLjcxNCw1MC43ODJjMC40NTgsMCwwLjc3NCwwLjA5OCwwLjk4MSwwLjE4NnYtMi41NjFsMC44ODItMC4wOTh2Ny44MDFIODEuNzZ2LTAuNTg4aC0wLjAyMSYjMTA7JiM5OyYjOTsmIzk7Yy0wLjE0MiwwLjE5Ni0wLjUwMSwwLjcxOS0xLjU1OCwwLjcxOWMtMS4xNDQsMC0yLjAxNi0wLjkyNi0yLjAxNi0yLjYzN0M3OC4xNjUsNTEuNTg4LDc5LjQ1MSw1MC43ODIsODAuNzE0LDUwLjc4MnomIzEwOyYjOTsmIzk7JiM5OyBNODEuNjk1LDU0Ljg3OHYtMy4wNTFjLTAuMTg2LTAuMTMxLTAuNDY5LTAuMjYxLTAuOTM3LTAuMjYxYy0xLjAxMywwLTEuNjc4LDAuNTU2LTEuNjc4LDEuOTcyYzAsMS40MDYsMC42NDMsMS45MTcsMS40MjcsMS45MTcmIzEwOyYjOTsmIzk7JiM5O0M4MS4yMTYsNTUuNDU2LDgxLjU0Miw1NS4wNjMsODEuNjk1LDU0Ljg3OHoiLz4mI3hhOwkJPHBhdGggZD0iTTg2LjI0OSw1My4yMDFoMC40MzZ2LTAuNDAzYzAtMC45MTUtMC4zNi0xLjI2NC0xLjAzNS0xLjI2NGMtMC42MzIsMC0xLjA2OCwwLjI5NC0xLjI5NiwwLjQ3OWwtMC4zMjctMC42NTQmIzEwOyYjOTsmIzk7JiM5O2MwLjI3Mi0wLjIwNywwLjgwNy0wLjYxLDEuNzg3LTAuNjFjMS4xNDQsMCwxLjc1NCwwLjY2NSwxLjc1NCwyLjA0OHYyLjIyM2MwLDAuNDQ3LDAuMDQzLDAuOTQ4LDAuMDY1LDEuMDg5aC0wLjg1bC0wLjAzMy0wLjU3OCYjMTA7JiM5OyYjOTsmIzk7aC0wLjAyMmMtMC4xODUsMC4yOTQtMC42MzIsMC43MDgtMS40NiwwLjcwOGMtMC44NjEsMC0xLjQxNy0wLjYxLTEuNDE3LTEuNDkzQzgzLjg1Miw1My42NjksODQuODg3LDUzLjIwMSw4Ni4yNDksNTMuMjAxeiYjMTA7JiM5OyYjOTsmIzk7IE04Ni42ODUsNTQuOTY1di0xLjEzM2wtMC41MDEsMC4wMjFjLTAuOTkxLDAuMDQ0LTEuNDQ5LDAuMjgzLTEuNDQ5LDAuODM5YzAsMC41MTIsMC4zNDksMC43OTUsMC43MywwLjc5NSYjMTA7JiM5OyYjOTsmIzk7Qzg2LjE2Miw1NS40ODgsODYuNDg4LDU1LjE3Miw4Ni42ODUsNTQuOTY1eiIvPiYjeGE7CQk8cGF0aCBkPSJNOTEuNjA4LDUxLjYzMmgtMS4zNTF2Mi43MDJjMCwwLjgxNywwLjIwNywxLjEyMiwwLjc4NCwxLjEyMmMwLjI4NCwwLDAuNTAxLTAuMDk4LDAuNjEtMC4xNTJsMC4wODcsMC43MDgmIzEwOyYjOTsmIzk7JiM5O2MtMC4wODcsMC4wNTUtMC4zODEsMC4yMjktMC45MzcsMC4yMjljLTEuMDI0LDAtMS40MjctMC41ODgtMS40MjctMS43ODd2LTIuODIyaC0wLjcxOXYtMC42MjFsMC43MTktMC4xMzFsMC4wOTgtMS40NmgwLjc4NHYxLjQ2JiMxMDsmIzk7JiM5OyYjOTtoMS40Nkw5MS42MDgsNTEuNjMyeiIvPiYjeGE7CQk8cGF0aCBkPSJNOTYuNDY3LDUzLjY4aC0zLjA0YzAuMDY1LDEuMjA5LDAuNjQzLDEuNzc2LDEuNTkxLDEuNzc2YzAuODI4LDAsMS4yMzEtMC4zNTksMS4zNzMtMC40OWwwLjI2MSwwLjYzMiYjMTA7JiM5OyYjOTsmIzk7Yy0wLjE3NCwwLjE3NC0wLjYyMSwwLjY0My0xLjczMiwwLjY0M2MtMS40ODIsMC0yLjM3NS0wLjg2MS0yLjM3NS0yLjgxMWMwLTEuODMsMS4wNzktMi42OCwyLjI2Ni0yLjY4JiMxMDsmIzk7JiM5OyYjOTtjMS4wNzksMCwxLjc1NCwwLjczLDEuNzU0LDIuMDQ4Qzk2LjU2NSw1My4xNDYsOTYuNTIxLDUzLjQyOSw5Ni40NjcsNTMuNjh6IE05My40MjcsNTIuOTk0aDIuMjg4JiMxMDsmIzk7JiM5OyYjOTtjMC4wMjEtMC4xMzEsMC4wMjEtMC4yNCwwLjAyMS0wLjM0OWMwLTAuNzMtMC4zODEtMS4xNDQtMS4wMDItMS4xNDRDOTQuMDA0LDUxLjUwMSw5My40OTMsNTIuMDM1LDkzLjQyNyw1Mi45OTR6Ii8+JiN4YTsJCTxwYXRoIGQ9Ik0xMDEuMjYsNTYuMTA5di0zLjA5NGMwLTEuMDAyLTAuMzA1LTEuNDgxLTEuMDQ2LTEuNDgxYy0wLjcwOCwwLTEuMTMzLDAuMzQ5LTEuMzczLDAuNTY2djQuMDA5aC0wLjg4MlY1MC44OGgwLjgxN3YwLjU4OCYjMTA7JiM5OyYjOTsmIzk7aDAuMDIxYzAuMjA3LTAuMjI5LDAuNzE5LTAuNzE5LDEuNjI0LTAuNzE5YzEuMTExLDAsMS43MjEsMC42OTcsMS43MjEsMi4xMjV2My4yMzZIMTAxLjI2eiIvPiYjeGE7CQk8cGF0aCBkPSJNMTA2LjI4Miw1MS42NjVjLTAuMDY1LTAuMDMzLTAuMTk2LTAuMDk4LTAuNDc5LTAuMDk4Yy0wLjY5NywwLTEuMDU3LDAuNDI1LTEuMjA5LDAuNzQxdjMuODAyaC0wLjg4MlY1MC44OGgwLjgxN3YwLjc3MyYjMTA7JiM5OyYjOTsmIzk7aDAuMDIxYzAuMTY0LTAuMzgxLDAuNTEyLTAuODcyLDEuMzI5LTAuODcyYzAuMjE4LDAsMC4zNDksMC4wMzMsMC40NzksMC4wNzZMMTA2LjI4Miw1MS42NjV6Ii8+JiN4YTsJCTxwYXRoIGQ9Ik0xMTAuOTU1LDUzLjY4aC0zLjA0YzAuMDY1LDEuMjA5LDAuNjQzLDEuNzc2LDEuNTkxLDEuNzc2YzAuODI4LDAsMS4yMzEtMC4zNTksMS4zNzMtMC40OWwwLjI2MSwwLjYzMiYjMTA7JiM5OyYjOTsmIzk7Yy0wLjE3NCwwLjE3NC0wLjYyMSwwLjY0My0xLjczMiwwLjY0M2MtMS40ODIsMC0yLjM3NS0wLjg2MS0yLjM3NS0yLjgxMWMwLTEuODMsMS4wNzktMi42OCwyLjI2Ni0yLjY4JiMxMDsmIzk7JiM5OyYjOTtjMS4wNzksMCwxLjc1NCwwLjczLDEuNzU0LDIuMDQ4QzExMS4wNTMsNTMuMTQ2LDExMS4wMSw1My40MjksMTEwLjk1NSw1My42OHogTTEwNy45MTYsNTIuOTk0aDIuMjg4JiMxMDsmIzk7JiM5OyYjOTtjMC4wMjEtMC4xMzEsMC4wMjEtMC4yNCwwLjAyMS0wLjM0OWMwLTAuNzMtMC4zODEtMS4xNDQtMS4wMDItMS4xNDRDMTA4LjQ5Myw1MS41MDEsMTA3Ljk4MSw1Mi4wMzUsMTA3LjkxNiw1Mi45OTR6Ii8+JiN4YTsJCTxwYXRoIGQ9Ik0xMTYuNzA3LDUxLjU2NmgtMC43OTVjMC4xODYsMC4yNzIsMC4yOTQsMC41OTksMC4yOTQsMC45NDhjMCwxLjExMS0wLjg4MiwxLjc2NS0yLjA0OCwxLjc2NSYjMTA7JiM5OyYjOTsmIzk7Yy0wLjE1MiwwLTAuMjk0LTAuMDExLTAuNDM2LTAuMDMyYy0wLjE3NCwwLjA3Ni0wLjQzNiwwLjIyOS0wLjQzNiwwLjUxMmMwLDAuMjE4LDAuMTY0LDAuMzcxLDAuNTU2LDAuMzcxaDEuMDY4JiMxMDsmIzk7JiM5OyYjOTtjMS4xLDAsMS43MzIsMC40NTgsMS43MzIsMS4zODRjMCwwLjk5MS0wLjk0OCwxLjkwNi0yLjc2NywxLjkwNmMtMS4yNDIsMC0xLjk2MS0wLjQ3OS0xLjk2MS0xLjQxNiYjMTA7JiM5OyYjOTsmIzk7YzAtMC43OTUsMC41OTktMS4xMjMsMC45MTUtMS4yODZ2LTAuMDIyYy0wLjIyOS0wLjE3NC0wLjMyNy0wLjQ0Ny0wLjMyNy0wLjc0MWMwLTAuNTQ1LDAuNDc5LTAuODA2LDAuNjIxLTAuODcydi0wLjAyMiYjMTA7JiM5OyYjOTsmIzk7Yy0wLjUzNC0wLjI2MS0wLjg4Mi0wLjc3My0wLjg4Mi0xLjU0N2MwLTEuMTc3LDAuODgyLTEuNzY1LDEuOTgzLTEuNzY1YzAuMjgzLDAsMC41NDUsMC4wNDMsMC43ODUsMC4xMzFoMS44MDhMMTE2LjcwNyw1MS41NjZ6JiMxMDsmIzk7JiM5OyYjOTsgTTExMy4zMDgsNTUuOTAyYy0wLjI3MiwwLjE2NC0wLjU0NSwwLjQyNS0wLjU0NSwwLjkyNmMwLDAuNTg4LDAuMzkyLDAuODM5LDEuMTc3LDAuODM5YzEuMjc0LDAsMS44MTktMC40OSwxLjgxOS0xLjAyNCYjMTA7JiM5OyYjOTsmIzk7YzAtMC41MDEtMC4yNjEtMC42OTctMC44NS0wLjY5N2gtMS4xNTVDMTEzLjU4MSw1NS45NDYsMTEzLjQzOSw1NS45MzUsMTEzLjMwOCw1NS45MDJ6IE0xMTQuMjM0LDUxLjQ3OSYjMTA7JiM5OyYjOTsmIzk7Yy0wLjU5OSwwLTEuMTMzLDAuMjgzLTEuMTMzLDEuMDM1YzAsMC43NTEsMC41MzQsMS4wMzUsMS4xMTEsMS4wMzVjMC41OTksMCwxLjEzMy0wLjI4NCwxLjEzMy0xLjAzNSYjMTA7JiM5OyYjOTsmIzk7QzExNS4zNDUsNTEuNzYyLDExNC44MTIsNTEuNDc5LDExNC4yMzQsNTEuNDc5eiIvPiYjeGE7CQk8cGF0aCBkPSJNMTE4LjMzLDQ5LjYxNmMtMC4zNDksMC0wLjYyMS0wLjI0LTAuNjIxLTAuNjIxczAuMjcyLTAuNjMyLDAuNjIxLTAuNjMyczAuNjMyLDAuMjUsMC42MzIsMC42MzImIzEwOyYjOTsmIzk7JiM5O1MxMTguNjc5LDQ5LjYxNiwxMTguMzMsNDkuNjE2eiBNMTE4Ljc2Niw1Ni4xMDloLTAuODgyVjUwLjg4aDAuODgyVjU2LjEwOXoiLz4mI3hhOwkJPHBhdGggZD0iTTEyMi45NzEsNTEuOTY5Yy0wLjE4Ni0wLjE1Mi0wLjU3OC0wLjQ1OC0xLjE1NS0wLjQ1OGMtMC41NjYsMC0wLjgzOSwwLjI0LTAuODM5LDAuNTQ1YzAsMC40MTQsMC4yNCwwLjU5OSwwLjc5NSwwLjg4MiYjMTA7JiM5OyYjOTsmIzk7bDAuMzkyLDAuMTk2YzAuODE3LDAuNDE0LDEuMjY0LDAuODYsMS4yNjQsMS42MjNjMCwwLjc5NS0wLjU4OCwxLjQ4Mi0xLjg2MywxLjQ4MmMtMC44NzIsMC0xLjMyOS0wLjMzOC0xLjU2OS0wLjU1NmwwLjMyNy0wLjc3MyYjMTA7JiM5OyYjOTsmIzk7YzAuMjI5LDAuMjI5LDAuNjEsMC41NDQsMS4yNDIsMC41NDRjMC42NjUsMCwxLjAwMi0wLjI1LDEuMDAyLTAuNTg4YzAtMC41MDEtMC4zMjctMC42ODYtMC45MTUtMS4wMDJsLTAuMzgxLTAuMjA3JiMxMDsmIzk7JiM5OyYjOTtjLTAuNzUyLTAuNDAzLTEuMTIyLTAuODM5LTEuMTIyLTEuNTU4YzAtMC43NzMsMC42OTctMS4zNTEsMS42ODgtMS4zNTFjMC44MzksMCwxLjI0MiwwLjM0OSwxLjQyNywwLjUwMUwxMjIuOTcxLDUxLjk2OXoiLz4mI3hhOwkJPHBhdGggZD0iTTEyNy4xNTQsNTEuNjMyaC0xLjM1MXYyLjcwMmMwLDAuODE3LDAuMjA3LDEuMTIyLDAuNzg0LDEuMTIyYzAuMjg0LDAsMC41MDEtMC4wOTgsMC42MS0wLjE1MmwwLjA4NywwLjcwOCYjMTA7JiM5OyYjOTsmIzk7Yy0wLjA4NywwLjA1NS0wLjM4MSwwLjIyOS0wLjkzNywwLjIyOWMtMS4wMjQsMC0xLjQyNy0wLjU4OC0xLjQyNy0xLjc4N3YtMi44MjJoLTAuNzE5di0wLjYyMWwwLjcxOS0wLjEzMWwwLjA5OC0xLjQ2aDAuNzg0djEuNDYmIzEwOyYjOTsmIzk7JiM5O2gxLjQ2TDEyNy4xNTQsNTEuNjMyeiIvPiYjeGE7CQk8cGF0aCBkPSJNMTMyLjAxMyw1My42OGgtMy4wNGMwLjA2NSwxLjIwOSwwLjY0MywxLjc3NiwxLjU5MSwxLjc3NmMwLjgyOCwwLDEuMjMxLTAuMzU5LDEuMzczLTAuNDlsMC4yNjEsMC42MzImIzEwOyYjOTsmIzk7JiM5O2MtMC4xNzQsMC4xNzQtMC42MjEsMC42NDMtMS43MzIsMC42NDNjLTEuNDgyLDAtMi4zNzUtMC44NjEtMi4zNzUtMi44MTFjMC0xLjgzLDEuMDc5LTIuNjgsMi4yNjYtMi42OCYjMTA7JiM5OyYjOTsmIzk7YzEuMDc5LDAsMS43NTQsMC43MywxLjc1NCwyLjA0OEMxMzIuMTExLDUzLjE0NiwxMzIuMDY3LDUzLjQyOSwxMzIuMDEzLDUzLjY4eiBNMTI4Ljk3Myw1Mi45OTRoMi4yODgmIzEwOyYjOTsmIzk7JiM5O2MwLjAyMS0wLjEzMSwwLjAyMS0wLjI0LDAuMDIxLTAuMzQ5YzAtMC43My0wLjM4MS0xLjE0NC0xLjAwMi0xLjE0NEMxMjkuNTUsNTEuNTAxLDEyOS4wMzksNTIuMDM1LDEyOC45NzMsNTIuOTk0eiIvPiYjeGE7CQk8cGF0aCBkPSJNMTM2LjA3Niw1MS42NjVjLTAuMDY1LTAuMDMzLTAuMTk2LTAuMDk4LTAuNDc5LTAuMDk4Yy0wLjY5NywwLTEuMDU3LDAuNDI1LTEuMjA5LDAuNzQxdjMuODAyaC0wLjg4MlY1MC44OGgwLjgxN3YwLjc3MyYjMTA7JiM5OyYjOTsmIzk7aDAuMDIxYzAuMTY0LTAuMzgxLDAuNTEyLTAuODcyLDEuMzI5LTAuODcyYzAuMjE4LDAsMC4zNDksMC4wMzMsMC40NzksMC4wNzZMMTM2LjA3Niw1MS42NjV6Ii8+JiN4YTsJPC9nPiYjeGE7CTxnPiYjeGE7CQk8cGF0aCBkPSJNMzkuODAxLDQwLjM5NWgtMy4zODJWMjkuNTY4aC0wLjA1MmwtNC4zNTIsMTAuODI3aC0yLjQ2NGwtNC4zNTItMTAuODI3aC0wLjA1MnYxMC44MjdoLTMuMzgyVjIyLjMwNyYjMTA7JiM5OyYjOTsmIzk7aDMuODU0bDUuMjY5LDEzLjE4NmgwLjA1M2w1LjMyMS0xMy4xODZoMy41MzlWNDAuMzk1eiIgZmlsbD0iIzZCOThDOCIvPiYjeGE7CQk8cGF0aCBkPSJNNDguNzEsMzMuMDAyaDAuNTI0di0wLjQ0NmMwLTEuNjUxLTAuNzA4LTIuNDktMi4xNDktMi40OWMtMS41NzMsMC0yLjU2OSwwLjgxMy0zLjAxNSwxLjIzMmwtMS4wMjItMi4wOTcmIzEwOyYjOTsmIzk7JiM5O2MwLjYwMy0wLjYyOSwyLjA5Ny0xLjg4Nyw0LjcxOS0xLjg4N2MyLjk4OCwwLDQuNjY2LDEuNjc4LDQuNjY2LDUuMzQ4djQuMjk5YzAsMS40NjgsMC4xMDUsMi42MjIsMC4yMSwzLjQzNGgtMy4wNDEmIzEwOyYjOTsmIzk7JiM5O2MtMC4wMjYtMC4zNjctMC4wNzktMC45MTctMC4wNzktMS40MTZINDkuNDdjLTAuNDQ2LDAuNzg3LTEuMjMyLDEuNzMtMy4wNDEsMS43M2MtMi4wOTcsMC0zLjU2NS0xLjUyMS0zLjU2NS0zLjgyNyYjMTA7JiM5OyYjOTsmIzk7QzQyLjg2NCwzNC4yMDgsNDUuNDMzLDMzLjAwMiw0OC43MSwzMy4wMDJ6IE00OS4yMzQsMzcuMzU0di0yLjM1OWwtMC42NTUsMC4wMjZjLTEuNzA0LDAuMDc5LTIuNTk1LDAuNTI0LTIuNTk1LDEuNTQ3JiMxMDsmIzk7JiM5OyYjOTtjMCwwLjkxNywwLjYwMywxLjU3MywxLjM5LDEuNTczQzQ4LjMxNiwzOC4xNDEsNDguODY3LDM3Ljc0OCw0OS4yMzQsMzcuMzU0eiIgZmlsbD0iIzZCOThDOCIvPiYjeGE7CQk8cGF0aCBkPSJNNjQuMzMyLDI2LjE4N2MtMC40MTktMC4zNDEtMS40OTUtMS4yNTgtMy4yMjUtMS4yNThjLTEuNjc4LDAtMi40MzgsMC43MzQtMi40MzgsMS42MjUmIzEwOyYjOTsmIzk7JiM5O2MwLDEuMTI3LDAuNTI0LDEuNjc4LDEuOTkyLDIuNTY5bDEuOTY2LDEuMjA2YzIuNDY0LDEuNTIxLDMuNTM5LDIuOTYyLDMuNTM5LDUuMjY5YzAsMi41MTctMS43ODMsNS4xMTItNi4xNjEsNS4xMTImIzEwOyYjOTsmIzk7JiM5O2MtMi45MSwwLTQuNDMtMS4yNTgtNS4wMzMtMS43NTZsMS4xNTMtMi45MzZjMC42MDMsMC42MDMsMS45NCwxLjcwNCwzLjgyOCwxLjcwNGMxLjg2MSwwLDIuNzI2LTAuNzg3LDIuNzI2LTEuNjc4JiMxMDsmIzk7JiM5OyYjOTtjMC0xLjIwNi0wLjUyNC0xLjgzNS0xLjkxNC0yLjc1Mkw1OC44LDMxLjk4Yy0yLjQ5MS0xLjY1MS0zLjU2NS0yLjkzNi0zLjU2NS01LjM0OGMwLTIuNTY5LDIuMTQ5LTQuNjQsNS43NjctNC42NCYjMTA7JiM5OyYjOTsmIzk7YzIuNTQzLDAsMy44NTQsMC45OTcsNC40MywxLjQxNkw2NC4zMzIsMjYuMTg3eiIgZmlsbD0iIzZCOThDOCIvPiYjeGE7CQk8cGF0aCBkPSJNNzUuNDk3LDMwLjI1aC0yLjkzNnY1LjE2NGMwLDEuODYxLDAuNDk4LDIuNDY0LDEuNzA0LDIuNDY0YzAuNjAzLDAsMS4xMjctMC4xNTcsMS4zMzctMC4yMzZsMC4yMzYsMi40MzgmIzEwOyYjOTsmIzk7JiM5O2MtMC4yNjIsMC4xMzEtMC45OTYsMC41NzctMi40MzgsMC41NzdjLTIuODU3LDAtNC4xNDItMS4zMTEtNC4xNDItNC45MjhWMzAuMjVoLTEuNzN2LTIuMjU0bDEuNzMtMC4zMTRsMC4zNjctMy41NjVoMi45MzZ2My41MTMmIzEwOyYjOTsmIzk7JiM5O2gzLjIyNEw3NS40OTcsMzAuMjV6IiBmaWxsPSIjNkI5OEM4Ii8+JiN4YTsJCTxwYXRoIGQ9Ik04Ny42ODUsNDAuMzk1bC0zLjg1NC02LjYwNmMtMC4zNDEsMC4wMjYtMC43MzQsMC4wMjYtMS4xMDEsMC4wMjZoLTAuNjU1djYuNThoLTMuNTEzVjIyLjMwN2g0LjI5OSYjMTA7JiM5OyYjOTsmIzk7YzUuMDg1LDAsNy40NDUsMS45OTIsNy40NDUsNS42MzZjMCwyLjIyOS0xLjA0OSw0LjAxMS0zLjEyLDUuMDA3bDQuNjQsNy40NDVIODcuNjg1eiBNODIuODYxLDI1LjE5aC0wLjc4N3Y1Ljg0NmgwLjY1NSYjMTA7JiM5OyYjOTsmIzk7YzIuNjQ4LDAsMy45MDYtMS4xMjcsMy45MDYtMy4wNjdDODYuNjM2LDI2LjEwOCw4NS40MywyNS4xOSw4Mi44NjEsMjUuMTl6IiBmaWxsPSIjNkI5OEM4Ii8+JiN4YTsJPC9nPiYjeGE7CTxnIG9wYWNpdHk9IjAuMiI+JiN4YTsJCTxnPiYjeGE7CQkJPGRlZnM+JiN4YTsJCQkJPHJlY3QgaGVpZ2h0PSI2LjY2NiIgd2lkdGg9IjYuNjY1IiB5PSIxNC40MzEiIHg9IjEzMC40MTciIGlkPSJTVkdJRF8xXyIvPiYjeGE7CQkJPC9kZWZzPiYjeGE7CQkJPGNsaXBQYXRoIGlkPSJTVkdJRF8yXyI+JiN4YTsJCQkJPHVzZSBvdmVyZmxvdz0idmlzaWJsZSIgeGxpbms6aHJlZj0iI1NWR0lEXzFfIi8+JiN4YTsJCQk8L2NsaXBQYXRoPiYjeGE7CQkJPHJlY3QgaGVpZ2h0PSI2LjY2NiIgd2lkdGg9IjYuNjY2IiBmaWxsPSIjNTc4RUMyIiBjbGlwLXBhdGg9InVybCgjU1ZHSURfMl8pIiB5PSIxNC40MzEiIHg9IjEzMC40MTciLz4mI3hhOwkJPC9nPiYjeGE7CTwvZz4mI3hhOwk8cmVjdCBoZWlnaHQ9IjYuNjY3IiB3aWR0aD0iNi42NjYiIGZpbGw9IiM1NzhFQzIiIHk9IjcuNTg0IiB4PSIxMjMuMjc5Ii8+JiN4YTsJPHJlY3QgaGVpZ2h0PSI2LjY2NyIgd2lkdGg9IjYuNjY2IiBmaWxsPSIjNTc4RUMyIiB5PSIyMS4wOTciIHg9IjEzNy4wODMiLz4mI3hhOwk8ZyBvcGFjaXR5PSIwLjYiPiYjeGE7CQk8Zz4mI3hhOwkJCTxkZWZzPiYjeGE7CQkJCTxyZWN0IGhlaWdodD0iNi42NjYiIHdpZHRoPSI2LjY2OCIgeT0iMjcuNzY1IiB4PSIxMTcuNzk2IiBpZD0iU1ZHSURfM18iLz4mI3hhOwkJCTwvZGVmcz4mI3hhOwkJCTxjbGlwUGF0aCBpZD0iU1ZHSURfNF8iPiYjeGE7CQkJCTx1c2Ugb3ZlcmZsb3c9InZpc2libGUiIHhsaW5rOmhyZWY9IiNTVkdJRF8zXyIvPiYjeGE7CQkJPC9jbGlwUGF0aD4mI3hhOwkJCTxyZWN0IGhlaWdodD0iNi42NjYiIHdpZHRoPSI2LjY2OCIgZmlsbD0iIzhFQURENSIgY2xpcC1wYXRoPSJ1cmwoI1NWR0lEXzRfKSIgeT0iMjcuNzY1IiB4PSIxMTcuNzk2Ii8+JiN4YTsJCTwvZz4mI3hhOwk8L2c+JiN4YTsJPHJlY3QgaGVpZ2h0PSI2LjY2NiIgd2lkdGg9IjYuNjY2IiBmaWxsPSIjNTc4RUMyIiB5PSIyNy43NjUiIHg9IjEyNC40NjQiLz4mI3hhOwk8ZyBvcGFjaXR5PSIwLjgiPiYjeGE7CQk8Zz4mI3hhOwkJCTxkZWZzPiYjeGE7CQkJCTxyZWN0IGhlaWdodD0iNi42NjciIHdpZHRoPSI2LjY2NiIgeT0iMzQuNDciIHg9IjEwMC42NjciIGlkPSJTVkdJRF81XyIvPiYjeGE7CQkJPC9kZWZzPiYjeGE7CQkJPGNsaXBQYXRoIGlkPSJTVkdJRF82XyI+JiN4YTsJCQkJPHVzZSBvdmVyZmxvdz0idmlzaWJsZSIgeGxpbms6aHJlZj0iI1NWR0lEXzVfIi8+JiN4YTsJCQk8L2NsaXBQYXRoPiYjeGE7CQkJPHJlY3QgaGVpZ2h0PSI2LjY2NyIgd2lkdGg9IjYuNjY2IiBmaWxsPSIjNTc4RUMyIiBjbGlwLXBhdGg9InVybCgjU1ZHSURfNl8pIiB5PSIzNC40NyIgeD0iMTAwLjY2NyIvPiYjeGE7CQk8L2c+JiN4YTsJPC9nPiYjeGE7PC9nPiYjeGE7PC9zdmc+;" parent="1" vertex="1">
          <mxGeometry x="140" y="573" width="155" height="64.82" as="geometry" />
        </mxCell>
        <mxCell id="W7SA1Zq43BpHZT7up2Kc-13" value="" style="shape=image;verticalLabelPosition=bottom;labelBackgroundColor=default;verticalAlign=top;aspect=fixed;imageAspect=0;image=data:image/png,iVBORw0KGgoAAAANSUhEUgAAAkQAAABXCAMAAADS46p0AAAAflBMVEX///8AAAD8/Pzv7+/FxcUiIiJTU1MbGxv39/fy8vLi4uJycnImJibCwsJgYGBdXV2zs7MvLy8NDQ1CQkKhoaFLS0tpaWm7u7uJiYnq6urd3d0TExPMzMw4ODjg4ODT09OWlpasrKyHh4d8fHyamppHR0cyMjJubm49PT14eHj9bhtCAAATWUlEQVR4nO2daZequhKGFRxAbRUFGRUQ2m7//x+8ZIIMlYDDvn16Ne+Hs85GAiF5klRSlfRkMmrUqFGjRo0aNWrUqFGvyvookfY/nY+flhvXC2+epvNbsK32F9v66Qz9JtmLKdLhp/Pxs7JLUgytvrOfztJvkr3FhTb/6Xz8qJJgKuvPd82PaIRoMvlQEBohekgjRJN8OUL0mt4GkVVfoyi6lr/OIo2/AYYEiBwffRrT6sdy+p/V2yByUvyg3a+DqIYYEiByz/wvHz+W0/+s3gfRBj9o++sgOvRDdOR+OIwQKfrzEO1BhkaIHtGfh+g6QvSy/jpE1mmE6GX9dYgu4tzsFDbX4vK6CLl7Roh69Nchym88Q5VDL9sud88IUY/+PEQbDhAvAe8ZIerRX4coS/nBzAHvGSHq0V+HaMZDVMH3jBD16LdAZK+S3Pf9MElWbv/dE3eVfPjRaVv5+2RlG27MeiByGsUCRKHlMD37Mb9b8SpeiZ/+KyCywmLRVvbmVOxj8/1ZfeKcqumiCCHwchSNd+UXrLezVhS85LRer78ED+1izXQ1ZsPJ/KJRCdtZJrkfdZPQ/3gEUjesi2tR95WMqKwmORxeZ0mxDc6Njov1vivTPojij2h9WjQ6raOZpklbjSYuhcjB/2QC77f3xRd9Zj1gcLD2SrjPeRtqP9wqA8Utf/iO1LwX8l3Tw5JpQ/MFRYm00tjhjeLZnTPYb0Vm6AzLqIi6EDh7tp63CTdVbupF2zT5nfviXagDaVVEUU2r3spLLk0wCKRV0WUN1/WMPswAkZvvd3KxFbnaPFb6Yl6qz5RjCKfn2txW8zP46EMNutPtUpeXq3y/ChH39CEQnTUZjyOF+l2p+zwL3Vuzf/lyie/2vbVbymmCAr4RfcyclEJyT8U0XtXXhzmRWhFbUkxaiGxhSGiVnnL5zthQzNKdxRZydy7vBozKOZAC6ztSgc7VGMUuM754rwmi9HmI3Boqt+n8A6bBQo2K5mx2BBKeZ/rCQV/8CaUBO/hZkzEPQeQUQDWkWs6xwo2apBHu4TUQxV8pmAbpLnWxQyFKQIKwDoXOWoYDNag2UvlaJi4anYSc/xuI2ko9fhW179fXtuf9Att6B1Gb+2Bd1HWxbhMW+jHN8VmayG8sPL992xW4mUEUf+FbDruiSdPkkKGrmZwiuRoXY2MixlqI5DFHUCAODAMhsqAm02oLF5TGx84UCTfb2i9lWvDd6D+BiDXYKo9JP2nZSUmvBUonPuEhivBNSz8hKZ048WlLDrQT0oiWQ04BteKcFkKlpqEQubhy5+XFbtMQqkDyyC1rqXi4/9/FOoiMhTcNhBo32EQef5+5mzhBFMWeMU0qpHHXxpuxzhz//wAiqyQ/SAPnJKNmSygn6CCy8S076Y6QtOY5bLBYpPIrcVh37/iqOk+mEKER/yaNXTHJYKWZCXVW1/epJHlp5mnU0DiuXBgih9bePNg2/eQ+D0t/veOmDfzL4hMWGas2J15CB+nSxN5ifS39PCnL4mvR2Q8n4AM0LnYmocQdY+/Z5rzrDf4BRCW+fr8oH+LUpPGqO5EoRLitH3zFynNJLgNoFkHGv1Qh0yK5LuTrCKLbChkIOxV/0oHBk+W2dc59Ph9ZRa4uYo1hjfO3Lvm5qZNFLUZKBicTOsUHc0GEa/m+5yd4NstII9Wws01VOJ1+CkUemW9mWrSsvh+iEl+uweacpGASBhHKzDc03E32uJ0dgV/w68BEIc6IvNkAQXT2l5rFPGx9gvsPmd01XUsdopUQc+qugWiW3vxYaRcxs2s2StYHLDaG03MYy7+zjDSNRHmdWM23z93njZ/5CE2wx3rqdIWfLuopiBJ8VTfJWeHvXMijNoaoRLn/1NjPuZht6XXwvoEPNC6cpTpHEC3P2jrCJMgD8aTzUS9r9Ten4spDgcjVbAFlJX+VMzIAIhdsaZ3VVsi/8AsgOzITs8OCQSe4SxN1gXGxq+5bwJpn7Bm7LnqTEaKNCJGzBT+i1QpnMZKuYohQFx+ogyAVbh+pUiH4dbqtTQXwrhkpI93yVoJMmIVij7dhe2DrsLjp82C3h0V6rmkqm3ovuD1cas3IrdTmFn287n2rGcmDgKRsPc39PLaRDy2vpF/acrrMZrNM6I6CsHV70NfF6P9DPuboUGfsnkwscNzra0xTLNKlSFVo0Y+fwy0Mq+azzVQakbXwyqCYhEIEWPdEuCwUq2hGP1ymn6mbzjzgO6Mp5Je94jtj8zupHDNufWsnJrgfpnf+Qi5ykvKdfyxjxLfeGf/DDp5KO4IDVrf2F6Mq8ozrvsTQFEuIQWRa6sOr2lLlu6iblgcsTqHK2ExrXRGtkNmmjFm0L9fuBXPa8eIBiKiZdZKf9YoDltIsDcg8RIGU4qPijQEpUlpehPSFX6cp/xwBItgqGRYKUgNfIClGMCzFpkIhWhi9rbiN3NRLgJXSZhrVbSBARiDSdkSEFzkjeWpuO001MUviAYgSMkXzpMsvQZSAYPIQKXUnOHdzcU1eGRlKkSKuQN4GkYVM2aDn63H3II54BKKD+RQSYkQIn7WQWoMi3HKEzGKIDJ0XaQfS79RyNKxmt8blAxA5pNuQJ4MvQWTTahKvZgIaRd/XtwJGBvEGDta3QbTXvFkUatYHoa0TiLY9YR+YPsEqwUViShIrd2CItKvSE9qWxWKO6Whrgpy5LB6JJ6IVIhmIL0Hk3CGIEtFt/FnobE9HcLuCFSK4No/dUPg2iJDhdeuNHYqUCiEQ9dGH1wd4ky3sq9nJBO1jOfJlgSEyDbi2+lBqbG6Mb1r/JyBiVot0VY5xWC72LvR8cVESHPQFA5ob4N8FETZ3vnq/E7f1NX+FQNSbEDHKL86hf3+az5bAwPJTBQTRwWASkXIUFw3IsqVxNGsLVwuRe8nZhJa5FEuwrh6AyE7YM3PqbNRABDlUT3u1uYf8DbKxRr9jy9/TNfx3QYTDbIveT49R5yrMjzBEcJ554ZbL2XKn3pqdZCgJ33kjiFJTFKA9VyCKwMqWlGwMENl+tTsyw2TpLbZVPaOrocoy11CIYv++ODO/6ua8OF39rAVTuhd27Z7vckEIiz3ytJFKWFrsrIt3QYSf039Gn4V6EI/vHshiY2/CXKxK7DoozEliuZawA9Y04rqBUq/UJDJHrGkcsI3sDyhEqpmBbJ+HKN7DYYqLHQjRROeX9/bCio4w7GmamtBbBa2p8C6ISvTbgC0E6D5hXRFDZG7oOA9TgZocNcMeQ8pG9cTb0W1QmvYlKkSbIRBNKg1EM0OMINYTEIXgeVKc5AQrbQJhn7Pgv9d4oC58DMzi7RBFUPYBlfIjMEQDgvnR8zsi8JpGt2UA1OkdEJEO49YT6k3sDhkiS3EWKHoYImehjWxkUtJ86JNww5bQZWoaTcxDtGn7jHdBVIHZV4VWAgTj9hGIuhWmDAzBBcSv6z8PUdADEbEnJIhc3m958LzPs+d5Un0+CpHQq6TkmXLcrppqBo9/SN2EWghd0/W8fKx2+m6IrB2cfUUvQdQVrjA4m7TgHvH/hcjtvAi360eW56skz/PZxz7i4HoQIo7L75p7ZnnnqghIlwjTKkHtco/gqh/SEx1/bDh7CaJubMLrsMtNr5b8DO55iMwuQXg4a6fWi0RauHOcy/X7KYgYC+lW2uJkOU5enbUQNWaE1jBi9rFgE2mmSMl/xyZKeT/UCxDV8apPF3md6FGIaP/9uGFNPVnTObxD8KkpPut/b3AdhwaIJk6pC5Oly6/Cz5rpshC09vVvZmcDDpZF9815ZjBE/Qceu9znTuiJOGZvr6pnIAqGQERHLgEiNrHWtGla4Q9B5NCOKNC0ub0JoiaXiQ9uP6NeamENSBPqIKwlFe3ld0GEF217XWcTB4XWCxupMER33f2t8DpR92r81zRMbjAwj09AVIGVLSnxFIhycknr/H8Gooz0XnNdv90DEZJdbFUjm+RR9GmA74iFIa8zSt66Yt1fq3jFmjd2CUT9XidfqhHU9rdDjrbg9AxEtGLWmhT0wVMFIppOs/L7HET0mdqF+gEQNUr28soDGbtc4JokARbOCfVW39mu9wgGvAZf8FeI76w3Ifrwb655oM53M8CU4vUMRLnKhyrAAeuDkHR6AiIWRq0dWstBEKGNduImZRLwKO4WAgNNhaUkrrLf5sXHkxHzjucJHR2EUiAQFT3pMKN8dyC5QQbpGYjioIeGSef/5iCi8UL6CoUhM0JEa3mjbXCwAxYdeKFe4idr9MSIkkdB9E0RiUH5XEDge+OJen1gqAV8A/FEyiYQSdiZKhjSOL99rxP1DETMKFobPBHM3OQhAmN71DQPQUSsmUAHEVsgB96l7ufL+Honl6TIxrtMUSkulHJdwcMQaa3nufRkSKVacDQ81my5kvBf4atwz/fY3xl5CiI2rdZ7/3M253kAIk0HZ4YoNUMUb+B3Il68THok/xddPuk1yVbaCdtvLCnGmh8WBkEkLGZ21rN4N36J1pAkOUcPOorVSCE6G41kPHiJ0UoJahemraKqnoJoQkv7W5dBp10NBiDSVTgrdhgimBMWeqh7ZjmFISId2Elcr1rxJzrRa8qhEmXXJ8ykVSZh+jYIIsEXvSRdkZ3VYkw7OTfAeGgX7sML8Rrb7WGc2WGnijiyY6vDED4P6DmIWAvUTYrubcnwhjU8XLVi/YAMEbnuwRDRktJ8gcOwkK6zyOjDzucw4uNDrtBFrM9qdsFVvZV9lUKg/BCIHDHC8nCqqq9tsOR2ZGNhq8gUIYtnwnKgKYYI9SqGRSayE1HqkPEoctPueET7PKW6eA4iizWhAkrC9/I8RCUtUdiUagcO6WUWLWm4Huir4OWGbsOPeF1wVQd1kqziVSKGk7St04aDnwB9Cv3yEIh0IQ0SRKRfV7eQMiXgjh0MEQ5V04a0ZQgXtfbxZEEf4W99yceFPAdR5+wFpg3kHIilGtnINlmAXVG3bUKGiHZr8FYouhy1BEPtuyhY4bKjuF69o+RG49r9rDfOhEqsqyEQyfvWmCSI6FRX95AE572QL5O9+GXzn1SzD4FEQqkDl4M35ir72anwATNfAtFPQtTVj3ygAzuRpgAiG2mfAi0vc1Nl+WUlrWgwl2zBGNgH7nSDqgiRpup48eN0zylpTJLDaRBEmsALGSK2xRTsUsicUt1lTU8FwQXrQ0CEePIDLR4Q18IWLHBy0qW4v/9ZiDoH97LkkycFqwUAotaLsBe7QysjZ2yBDljm2eBPI8u75sP8n4dcGgNIwCxNy//C3MAGHYS22x9HN1WdloMgSm7gsxSIJiW+vlH/hqkT4e4EOPKMQkSmHidlicCJcNHAyzSkoj5VY96qMXlL8XFPQ7TqbIVjFZJCsksWerFzwBjr1kY58Z1oSM5xPBZkvi6/zGa8bqIwsSarrFwvuSko83uld66hOiV5fUB7TP55F/MpaUii33JANOa0kMtnEEQTOKZJhWiyJ63hLJ7WbJMzhgBGupPSyOCdVvw541bsE9NC57qiY7gYsWOxE3TXErJPQzRJBJdA+v393QXWnFz4uL24m9N6p7AxZ+N9wS7dYjgURFw2PpB7uGUT7uQ8r9o3j7zsoyPtgM70mDrJJqp6zBxl/7rxlFD09WrwxDCIMvBxAERtJOa5CBP8NDsPCzpBKCAjuD2z0aGmwrqcXfB5Jtm+otapfiE8o0bitswIHfEsrGgFK0d3Pw+RtOOKFzrgBz6zUdN/N/pMNL6zCXRaKL/2lsuxsK12scbtMTOeoLdQ2/WHPph2CscyDYMI3nYCQdR1yNNzsG0UsMaTwmsm3OmxJb1ziVIG323wy8zgcmhfN//eNW/bfbIZ7UENBnsBoomjMTlr1DA0B39eNNXX1LceoosyzRYWcGNNcPnV0frO3FLfGYFHqtr6YNppBZXfQIhsqDxAiJpHQvd6upAh/hzr1R1IeO3bpg++znQEsVYGiNDRnGr97YhRqj0MvQQ6owAvcmghmsRygxXHcqsGOqMt7h50DtjmlxN4ovZR9635GuRu8wWvAg6ECDqa1tNFFrp74Mgt3YN5iJqylTBaas8f6BQrf6Qghf+gCPrWpREiNDjqz/7PpMzt2Goma2JqmsSXMPqkf32EQgS9zBLioT3lDy7ktRSguNubtlETZb6yBW5RGjydWaGwetbWhbin0eBLt/ZiVd18w9p0YxFvPTyLPSw331VicIyJECGreOfNUZtPN+fTwL8R46yiYINfly69Y6R7nR02Mj3RmoWh6U/MWG74dd4sl+lyeQtqbgrg2lhQGjevjihvh/n8tijaY0DjEAt+mZNVR28z33jHL7AEnFkVNNlovnZ+2xU2uyXZo0fqehfHzqoA5X65nHvoJOWesnWT6Hib4x4snXtBJG834GTZnMyRgk4SBU39zpuPW0R5f1RhY+M26vvLKxJEWKu8SWj6ozKQVuht+WN+/WdkJats9dhrrNUsnD2YpplZGAvAvSRhtnrojyohOZdGw1OtsvCJquiTfVkpB+C+JAiiUaMe0gjRqJc1QjTqZY0QjXpZI0SjXtYI0aiXNUI06mWNEI16WSNEo17WCNGolzVCNOplNRAdRohGjRo1atSoUaNGjRo16g36H974JvcH2ryrAAAAAElFTkSuQmCC;" parent="1" vertex="1">
          <mxGeometry x="140" y="379" width="140" height="21" as="geometry" />
        </mxCell>
      </root>
    </mxGraphModel>
  </diagram>
</mxfile>
